<?xml version="1.0" encoding="utf-8"?>
<!-- Generator: Adobe Illustrator 21.1.0, SVG Export Plug-In . SVG Version: 6.00 Build 0)  -->
<svg version="1.1" id="Layer_2" xmlns="http://www.w3.org/2000/svg" xmlns:xlink="http://www.w3.org/1999/xlink" x="0px" y="0px"
	 viewBox="0 0 1332.7 580.4" style="enable-background:new 0 0 1332.7 580.4;" xml:space="preserve">
<style type="text/css">
	.st0{fill:#FFFA71;}
	.st1{fill:#212121;}
	.st2{fill:#ECFF99;}
	.st3{fill:#8BA4E8;}
	.st4{fill:#FFB25D;}
	.st5{fill:#FFDB5D;}
	.st6{fill:#666666;}
	.st7{fill:#FFE583;}
	.st8{fill:#A4FF77;}
	.st9{fill:#FF6D62;}
	.st10{fill:#61BCE8;}
	.st11{fill:#FF5055;}
	.st12{fill:#FFFFFF;}
	.st13{fill:#77FF79;}
	.st14{fill:#D9EAF7;}
	.st15{fill:#A0C0E4;}
	.st16{fill:#AEFF6B;}
	.st17{fill:#7289DA;}
	.st18{fill:#E6EBF4;}
	.st19{fill:#9D84FF;}
	.st20{fill:#C09EFF;}
	.st21{fill:#55E2C6;}
	.st22{fill:#5CD695;}
	.st23{fill:#FFED6C;}
</style>
<g>
	<path class="st0" d="M493.6,203.6l7.7-4.1c1.1-0.6,1.8-1.6,1.9-2.8l1-8.6c0.4-3,4-4.4,6.2-2.2l6.2,6c0.9,0.8,2.1,1.2,3.3,1l8.5-1.7
		c3-0.6,5.4,2.5,4,5.2l-3.8,7.8c-0.5,1.1-0.5,2.4,0.1,3.4l4.2,7.5c1.5,2.7-0.7,5.9-3.7,5.5l-8.6-1.2c-1.2-0.2-2.4,0.3-3.2,1.2
		l-5.9,6.4c-2.1,2.3-5.8,1.2-6.4-1.9l-1.5-8.5c-0.2-1.2-1-2.2-2.1-2.7l-7.9-3.6C491,208.9,490.9,205,493.6,203.6z"/>
	<g>
		<path class="st1" d="M508.9,230.6c-0.6,0-1.2-0.1-1.8-0.3c-2.3-0.7-3.9-2.5-4.4-4.9l-1.5-8.5c-0.1-0.4-0.3-0.7-0.7-0.9l-7.9-3.6
			c-2.2-1-3.5-3.1-3.6-5.5c-0.1-2.4,1.2-4.5,3.3-5.6l7.6-4.1c0.3-0.2,0.6-0.5,0.6-0.9l1-8.6c0.3-2.4,1.8-4.3,4.1-5.1
			c2.2-0.8,4.7-0.3,6.4,1.4l2.3,2.2c1,1,1,2.5,0.1,3.5c-1,1-2.5,1-3.5,0.1l-2.3-2.2c-0.5-0.5-1-0.3-1.2-0.3c-0.2,0.1-0.7,0.3-0.8,1
			l-1,8.6c-0.2,2-1.5,3.8-3.3,4.8l-7.6,4.1c-0.6,0.3-0.6,0.9-0.6,1.1c0,0.2,0.1,0.8,0.7,1l7.9,3.6c1.9,0.9,3.2,2.6,3.5,4.6l1.5,8.5
			c0.1,0.7,0.6,0.9,0.8,0.9c0.2,0.1,0.8,0.2,1.2-0.3l5.9-6.4c1.4-1.5,3.4-2.2,5.4-1.9l8.6,1.2c0.7,0.1,1-0.3,1.2-0.5
			c0.1-0.2,0.4-0.7,0.1-1.3l-4.2-7.5c-1-1.8-1.1-3.9-0.2-5.8l3.8-7.8c0.3-0.6,0-1.1-0.1-1.3c-0.1-0.2-0.5-0.6-1.2-0.4l-3.3,0.7
			c-1.4,0.3-2.7-0.6-2.9-2c-0.3-1.4,0.6-2.7,2-2.9l3.3-0.7c2.3-0.5,4.7,0.4,6.1,2.3c1.5,1.9,1.7,4.4,0.7,6.5l-3.8,7.8
			c-0.2,0.4-0.2,0.8,0,1.1l4.2,7.5c1.2,2.1,1.1,4.6-0.3,6.5c-1.3,2-3.6,3-6,2.6l-8.6-1.2c-0.4-0.1-0.8,0.1-1,0.4l-5.9,6.4
			C512.2,229.9,510.6,230.6,508.9,230.6z"/>
	</g>
</g>
<g>
	<g>
		<path class="st2" d="M734.8,539.5c4.8-0.8,10.1-2.3,15.7-4.4c9.2-3.5,19.3-8.7,29.5-15.8s18.5-14.8,25-22.3
			c13.3-15.6,18.2-30.3,13.1-37.7c-5.3-7.6-20.6-6.6-39.9,1.9c3.7,1.2,7.2,3,10.4,5.3c8.7-3.1,14.9-3.3,17.1-0.2
			c2,2.9,0.4,8.5-4.4,15.4c-5.5,8-15.3,17.7-28.6,27s-25.8,15.1-35.2,17.6c-8.2,2.1-14,1.7-16-1.1c-2.1-3.1,0.2-8.8,6.1-16
			c-1.1-3.8-1.5-7.7-1.4-11.6c-14.6,15.2-20.7,29.2-15.4,36.8c1.6,2.3,4.3,3.9,7.7,4.9"/>
		<path class="st1" d="M734.8,541.8c-1.1,0-2.1-0.8-2.3-1.9c-0.2-1.3,0.6-2.5,1.9-2.7c4.8-0.8,9.9-2.2,15.3-4.2
			c9.5-3.6,19.5-8.9,29-15.5c9.4-6.6,17.9-14.2,24.5-21.9c12.3-14.3,17.5-28.4,12.9-34.9c-4-5.7-16.3-5.4-31.9,0.6
			c1.6,0.8,3.2,1.7,4.7,2.7c9.5-3.2,15.9-2.8,18.6,1c2.7,3.8,1.1,10-4.4,18c-6.2,9-16.6,18.8-29.2,27.6
			c-12.6,8.8-25.3,15.2-35.9,17.9c-9.4,2.5-15.8,1.8-18.5-2c-2.7-3.9-0.8-10,5.4-17.8c-0.4-1.8-0.8-3.6-1-5.4
			c-11,12.6-15.5,24.1-11.5,29.8c1.3,1.8,3.4,3.2,6.4,4c1.2,0.3,2,1.6,1.6,2.8c-0.3,1.2-1.6,2-2.8,1.6c-4-1.1-7.1-3-9-5.8
			c-5.9-8.5-0.1-23.4,15.7-39.7l4.1-4.3l-0.2,5.9c-0.1,3.7,0.4,7.3,1.4,10.9l0.3,1.2l-0.8,0.9c-6.1,7.3-7,11.7-6,13.2
			c1.1,1.6,5.7,2.3,13.5,0.2c10.1-2.6,22.3-8.8,34.4-17.3c12.1-8.5,22.1-17.9,28-26.4c4.6-6.6,5.5-11.2,4.4-12.8
			c-1-1.5-5.4-2.1-14.4,1.1l-1.1,0.4l-1-0.7c-3-2.1-6.3-3.8-9.8-5l-5.6-1.9l5.4-2.4c20.8-9.2,36.7-9.6,42.7-1.1
			c6,8.5,0.9,24.1-13.2,40.5c-7,8.1-15.5,15.7-25.4,22.6c-9.9,6.9-20,12.3-30,16.1c-5.6,2.1-11.1,3.6-16.1,4.5
			C735.1,541.8,735,541.8,734.8,541.8z"/>
	</g>
	<g>
		<path class="st3" d="M726.1,500.7c0-0.1,0-0.2,0-0.2C726.1,500.5,726.1,500.6,726.1,500.7z"/>
		<polygon class="st1" points="723.8,500.8 723.8,500.6 728.4,500.4 728.4,500.5 		"/>
	</g>
	<g>
		<path class="st3" d="M786.1,464.9C786.1,465,786.1,465,786.1,464.9C786.1,465,786.1,465,786.1,464.9z"/>
		<path class="st1" d="M784.9,467l-0.1-0.1l1.7-2.7L784.9,467z M786.1,464.9l1.2-2L786.1,464.9z"/>
	</g>
	<g>
		<path class="st1" d="M728.4,530c-4.2,0-7.2-1.2-8.9-3.5c-2.8-4-0.7-10.5,6.2-18.8l2.8-3.4l1.2,4.3c1.1,4.1,2.9,7.9,5.3,11.3
			c1.2,1.7,2.5,3.3,4,4.8l2.8,2.8l-3.9,1C734.3,529.6,731.1,530,728.4,530z M726.7,514.1c-3.7,5.3-4.3,8.6-3.4,9.8
			c0.9,1.3,4.2,2,9.7,1c-0.6-0.8-1.2-1.6-1.8-2.4C729.4,519.9,727.9,517.1,726.7,514.1z"/>
	</g>
	<g>
		<path class="st3" d="M780.8,462.2c0.1,0,0.1,0.1,0.2,0.1C780.9,462.3,780.8,462.3,780.8,462.2z"/>
		<polygon class="st1" points="780.1,464.5 779.8,464.4 781.7,460.1 781.8,460.2 781,462.3 		"/>
	</g>
	<g>
		<path class="st3" d="M726.4,503.5C726.4,503.5,726.4,503.5,726.4,503.5C726.4,503.5,726.4,503.5,726.4,503.5z"/>
		<polygon class="st1" points="724.3,504.5 724.1,504.1 724.1,503.5 726.4,503.5 728.4,502.5 726.4,503.5 728.7,503.5 726.4,503.5 
					"/>
	</g>
	<g>
		<path class="st3" d="M783.5,463.5C783.5,463.5,783.5,463.5,783.5,463.5C783.5,463.5,783.5,463.5,783.5,463.5z"/>
		<polygon class="st1" points="783,465.8 783.5,463.6 782.3,465.5 783.5,463.6 784.1,461.3 784.5,461.4 784.8,461.6 783.5,463.5 		
			"/>
	</g>
	<g>
		<path class="st3" d="M726.8,506.4C726.8,506.4,726.8,506.4,726.8,506.4C726.8,506.4,726.8,506.4,726.8,506.4z"/>
		<path class="st1" d="M724.6,506.8l2.3-0.4L724.6,506.8z M724.5,506.8L724.5,506.8L724.5,506.8z M726.2,506.5l0.6-0.1l2.3-0.4
			L726.2,506.5z"/>
	</g>
	<g>
		<path class="st3" d="M783.5,463.5c0.9,0.4,1.7,0.9,2.5,1.4C785.2,464.4,784.4,464,783.5,463.5z"/>
		<path class="st1" d="M784.9,466.9C784.9,466.9,784.9,466.9,784.9,466.9L784.9,466.9C784.9,466.9,784.9,466.9,784.9,466.9
			c-0.4-0.3-0.9-0.5-1.3-0.8c-0.4-0.2-0.7-0.4-1.1-0.6c0,0,0,0,0,0h0l2.1-4.1h0l0,0c0,0,0,0,0,0c0.4,0.2,0.8,0.4,1.2,0.6
			c0.5,0.3,1,0.6,1.5,0.9L784.9,466.9z"/>
	</g>
	<g>
		<path class="st3" d="M778.2,461.3c0.9,0.3,1.7,0.6,2.6,1C779.9,461.9,779,461.6,778.2,461.3z"/>
		<path class="st1" d="M779.9,464.4c-0.9-0.4-1.7-0.7-2.4-0.9l1.5-4.4c0.9,0.3,1.8,0.6,2.7,1L779.9,464.4z"/>
	</g>
	<g>
		<path class="st3" d="M781,462.3c0.9,0.4,1.7,0.8,2.6,1.2C782.7,463.1,781.8,462.7,781,462.3z"/>
		<path class="st1" d="M782.5,465.6C782.5,465.6,782.5,465.6,782.5,465.6c-0.8-0.4-1.6-0.8-2.4-1.1l1.8-4.3c0.9,0.4,1.8,0.8,2.7,1.3
			c0,0,0,0,0,0L782.5,465.6z"/>
	</g>
	<g>
		<path class="st3" d="M786.1,465c0.8,0.5,1.6,1,2.4,1.6C787.8,466,786.9,465.5,786.1,465z"/>
		<path class="st1" d="M787.2,468.5c-0.7-0.5-1.5-1-2.3-1.5c0,0,0,0,0,0c0,0,0,0,0,0l2.4-3.9c0.9,0.5,1.7,1.1,2.6,1.7L787.2,468.5z"
			/>
	</g>
	<g>
		<path class="st3" d="M726.1,497.7c0,0.9,0,1.8,0,2.8C726.1,499.5,726.1,498.6,726.1,497.7z"/>
		<path class="st1" d="M723.8,500.6c0-1-0.1-2,0-2.9c0,0,0,0,0,0l4.6,0.1c0,0.8,0,1.7,0,2.6L723.8,500.6z"/>
	</g>
	<g>
		<path class="st3" d="M726.4,503.5c-0.1-0.9-0.2-1.9-0.2-2.8C726.2,501.6,726.2,502.6,726.4,503.5z"/>
		<path class="st1" d="M724.1,503.8c-0.1-1-0.2-2-0.3-3c0,0,0,0,0,0c0,0,0,0,0,0l4.6-0.2c0,0,0,0,0,0l0,0c0,0,0,0,0,0
			c0,0.9,0.1,1.8,0.2,2.6L724.1,503.8z"/>
	</g>
	<g>
		<path class="st3" d="M727.5,509.3c-0.3-0.9-0.5-1.9-0.7-2.9C727,507.4,727.2,508.3,727.5,509.3z"/>
		<path class="st1" d="M725.3,509.9C725.3,509.9,725.3,509.9,725.3,509.9c-0.3-1-0.5-2-0.7-3v0l0,0l4.5-0.9l0,0l0,0c0,0,0,0,0,0
			c0.2,0.9,0.4,1.8,0.6,2.7c0,0,0,0,0,0L725.3,509.9z"/>
	</g>
	<g>
		<path class="st3" d="M726.8,506.4c-0.2-1-0.3-1.9-0.5-2.9C726.5,504.5,726.6,505.4,726.8,506.4z"/>
		<path class="st1" d="M724.6,506.8C724.6,506.8,724.6,506.8,724.6,506.8c-0.2-1-0.4-2-0.5-3c0,0,0,0,0,0l4.6-0.6
			c0.1,0.9,0.3,1.8,0.4,2.7L724.6,506.8z"/>
	</g>
	<g>
		<path class="st4" d="M726.1,500.7c0,0.9,0.1,1.9,0.2,2.8c0,0,0,0,0,0c0.1,1,0.3,1.9,0.5,2.9c0,0,0,0,0,0c0.2,1,0.4,1.9,0.7,2.9
			c1.2,4.2,3,8.2,5.7,12c1.3,1.8,2.7,3.5,4.2,5.1l0,0c9.4-2.5,21.9-8.3,35.2-17.6s23.1-19,28.6-27l0,0c-0.9-2-2-3.9-3.3-5.7
			c-2.6-3.8-5.8-6.9-9.3-9.5c-0.8-0.6-1.6-1.1-2.4-1.6c0,0,0,0,0,0c-0.8-0.5-1.7-1-2.5-1.4c0,0,0,0,0,0c-0.8-0.4-1.7-0.8-2.6-1.2
			c-0.1,0-0.1-0.1-0.2-0.1c-0.9-0.4-1.7-0.7-2.6-1c-11.5-3.9-24.6-2.4-35.3,5c-10.7,7.5-16.5,19.3-16.8,31.4c0,0.9,0,1.8,0,2.8
			C726.1,500.5,726.1,500.6,726.1,500.7z"/>
		<g>
			<g>
				<path class="st5" d="M726.6,494.3c-0.9,0-1.8-0.6-2.2-1.5c-0.4-1.2,0.2-2.5,1.4-3c0.1,0,10.5-3.8,16.1-8.8
					c1-0.8,2.4-0.8,3.3,0.2c0.8,1,0.8,2.4-0.2,3.3c-6.3,5.6-17.1,9.5-17.6,9.7C727.1,494.3,726.9,494.3,726.6,494.3z"/>
			</g>
			<g>
				<path class="st5" d="M766.8,481.3c-0.6,0-1.3-0.3-1.7-0.8c-0.9-0.9-0.8-2.4,0.2-3.3c2.6-2.4,5.2-4.9,7.7-7.5
					c0.9-0.9,2.3-0.9,3.3-0.1c0.9,0.9,0.9,2.3,0.1,3.3c-2.6,2.7-5.3,5.3-8,7.7C767.9,481.1,767.3,481.3,766.8,481.3z"/>
			</g>
			<g>
				<path class="st5" d="M726.4,505.8c-1,0-2-0.7-2.2-1.7c-0.3-1.2,0.4-2.5,1.7-2.8c0.2,0,11.1-3,30.3-16.5c1-0.7,2.5-0.5,3.2,0.6
					c0.7,1,0.5,2.5-0.6,3.2c-20.1,14.1-31.4,17-31.8,17.1C726.7,505.8,726.5,505.8,726.4,505.8z"/>
			</g>
		</g>
		<path class="st1" d="M736.7,528.9l-0.9-1c-1.7-1.7-3.2-3.5-4.5-5.4c-2.7-3.9-4.7-8.2-6-12.7c-0.3-1-0.5-2-0.7-3l0-0.1
			c-0.2-0.8-0.3-1.7-0.4-2.6l-0.1-0.1l0-0.4c-0.1-0.9-0.2-1.9-0.2-2.8l0-0.2c0-1.1-0.1-2,0-3c0.3-13.2,7-25.6,17.8-33.2
			c10.8-7.6,24.8-9.6,37.3-5.3c0.9,0.3,1.8,0.6,2.7,1l0.2,0.1c0.9,0.4,1.7,0.7,2.5,1.1l0.1,0l0.2,0.2c0.9,0.4,1.7,0.9,2.6,1.4
			c0.9,0.6,1.8,1.1,2.6,1.7c3.8,2.8,7.2,6.1,9.9,10c1.3,1.9,2.5,3.9,3.5,6.1l0.6,1.2l-0.8,1.1c-6.2,9-16.6,18.8-29.2,27.6
			c-12.6,8.8-25.3,15.2-35.9,17.9L736.7,528.9z M728.6,503.1l0,0.1c0.1,0.9,0.3,1.8,0.4,2.7l0,0.1c0.2,0.8,0.4,1.7,0.6,2.6
			c1.1,4.1,2.9,7.9,5.3,11.3c0.9,1.3,2,2.6,3.1,3.8c9.8-2.8,21.5-8.8,33.1-16.9c11.6-8.1,21.2-17.1,27.2-25.3
			c-0.8-1.5-1.6-2.9-2.5-4.2c-2.4-3.5-5.4-6.4-8.8-8.9c-0.7-0.5-1.5-1-2.3-1.5c-0.8-0.5-1.5-0.9-2.3-1.3l-0.1-0.1
			c-0.8-0.4-1.6-0.8-2.4-1.1l-0.2-0.1c-0.8-0.3-1.6-0.7-2.4-0.9c-11.2-3.8-23.6-2-33.2,4.7c-9.6,6.7-15.6,17.8-15.9,29.5
			c0,0.8,0,1.7,0,2.6l0,0.2C728.5,501.4,728.5,502.3,728.6,503.1z"/>
	</g>
	<g>
		<path class="st4" d="M780,519.4c-10.2,7.1-20.2,12.3-29.5,15.8l0,0c12,4.9,26.2,3.8,37.6-4.2c11.4-8,17.3-20.9,16.8-33.9l0,0
			C798.6,504.6,790.2,512.3,780,519.4z"/>
		<g>
			<path class="st5" d="M784.5,526.6c-0.8,0-1.6-0.4-2-1.1c-0.6-1.1-0.3-2.5,0.8-3.2c13.3-7.8,18.4-16.9,18.4-17
				c0.6-1.1,2-1.5,3.1-0.9c1.1,0.6,1.5,2,0.9,3.1c-0.2,0.4-5.8,10.4-20.1,18.8C785.3,526.5,784.9,526.6,784.5,526.6z"/>
		</g>
		<path class="st1" d="M765.6,540.5c-5.4,0-10.8-1-15.9-3.1l-5.5-2.2l5.5-2.1c9.5-3.6,19.5-8.9,29-15.5c9.4-6.6,17.9-14.2,24.5-21.9
			l3.8-4.5l0.2,5.9c0.5,14.3-6.1,27.7-17.8,35.9C782.3,537.9,774,540.5,765.6,540.5z M757.3,534.9c10.1,2.3,20.8,0.3,29.5-5.8
			c8.7-6.1,14.2-15.4,15.6-25.7c-6.1,6.3-13.1,12.3-21,17.9C773.4,526.8,765.4,531.4,757.3,534.9z"/>
	</g>
</g>
<g>
	<g>
		<path class="st6" d="M559.4,102.4c-10.2,12.3-14.8,24.5-8.8,30.4c5.1,4.9,16.4,0.8,24.6-3.1c6.2-3,13.6-2.9,19.7,0.4l36.9,24
			c5.5,4.3,8.6,10.9,8.4,17.8c-0.3,9.1,0.6,21.1,7.1,23.8c7.9,3.2,17.1-6,24.2-20.3s12.2-33.7,11.8-51.2
			c-0.3-13.9-35.6-34.9-35.6-34.9s-33.5-23.7-46.4-18.4c-9.7,4.1-19.3,10.3-27.6,17.2"/>
		<path class="st1" d="M650.6,198.5c-1.4,0-2.7-0.3-4-0.8c-6.2-2.5-9.1-11.2-8.6-26c0.2-6.1-2.6-12.1-7.4-15.9L593.8,132
			c-5.4-2.9-12-3-17.5-0.3c-13.3,6.4-22.5,7.4-27.2,2.7c-6.6-6.5-3.4-19,8.6-33.5c0.8-1,2.3-1.1,3.3-0.3c1,0.8,1.1,2.3,0.3,3.3
			c-10,12.1-13.5,22.8-8.9,27.3c3.1,3,11.1,1.7,22-3.5c6.9-3.3,15-3.2,21.8,0.4l0.2,0.1l37.1,24.1c6,4.7,9.5,12.1,9.2,19.7
			c-0.4,12.1,1.7,19.9,5.7,21.5c5.9,2.4,14.3-5.2,21.3-19.2c7.5-15,11.9-34.2,11.5-50.1c-0.1-4.9-6.2-12.3-17-20.9
			c-8.6-6.8-17.4-12-17.5-12.1l-0.2-0.1c-0.1-0.1-8.4-5.9-18.1-11.1c-12.2-6.4-21.5-9-26-7.1c-9.1,3.8-18.4,9.6-27,16.9
			c-1,0.8-2.4,0.7-3.3-0.3c-0.8-1-0.7-2.4,0.3-3.3c9-7.5,18.8-13.6,28.2-17.6c6-2.5,16.1-0.1,30,7.3c9.6,5.1,17.6,10.7,18.5,11.3
			c1,0.6,9.3,5.6,17.9,12.4c12.3,9.7,18.7,17.9,18.8,24.4c0.4,16.6-4.2,36.6-12,52.3C666.5,190.6,658.2,198.5,650.6,198.5z"/>
	</g>
	<g>
		<ellipse transform="matrix(0.5449 -0.8385 0.8385 0.5449 201.1945 546.9016)" class="st6" cx="604.5" cy="88.1" rx="9" ry="9"/>
		<path class="st1" d="M604.4,99.4c-2.1,0-4.2-0.6-6.1-1.8c-5.2-3.4-6.7-10.4-3.3-15.6c1.6-2.5,4.2-4.3,7.1-4.9
			c2.9-0.6,6-0.1,8.5,1.6c5.2,3.4,6.7,10.4,3.3,15.6l0,0C611.7,97.6,608.1,99.4,604.4,99.4z M604.5,81.4c-0.5,0-0.9,0-1.4,0.1
			c-1.7,0.4-3.2,1.4-4.2,2.9c-2,3.1-1.1,7.2,2,9.2c3.1,2,7.2,1.1,9.2-2l0,0c2-3.1,1.1-7.2-2-9.2C607,81.8,605.7,81.4,604.5,81.4z
			 M612,93L612,93L612,93z"/>
	</g>
	<g>
		<ellipse transform="matrix(0.5449 -0.8385 0.8385 0.5449 175.6983 562.271)" class="st6" cx="605.9" cy="119.3" rx="9" ry="9"/>
		<path class="st1" d="M605.8,130.5c-2.1,0-4.2-0.6-6.1-1.8c-2.5-1.6-4.3-4.2-4.9-7.1c-0.6-2.9-0.1-6,1.6-8.5
			c3.4-5.2,10.4-6.7,15.6-3.3c5.2,3.4,6.7,10.4,3.3,15.6l0,0C613.2,128.7,609.5,130.5,605.8,130.5z M605.9,112.6
			c-2.2,0-4.3,1.1-5.6,3c-1,1.5-1.3,3.3-0.9,5c0.4,1.7,1.4,3.2,2.9,4.2c3.1,2,7.2,1.1,9.2-2l0,0c2-3.1,1.1-7.2-2-9.2
			C608.4,113,607.1,112.6,605.9,112.6z M613.4,124.1L613.4,124.1L613.4,124.1z"/>
	</g>
	<g>
		<ellipse transform="matrix(0.5449 -0.8385 0.8385 0.5449 172.9391 597.0872)" class="st6" cx="636.6" cy="139.2" rx="9" ry="9"/>
		<path class="st1" d="M636.5,150.5c-2.1,0-4.2-0.6-6.1-1.8c-5.2-3.4-6.7-10.4-3.3-15.6c3.4-5.2,10.4-6.7,15.6-3.3
			c2.5,1.6,4.3,4.2,4.9,7.1c0.6,2.9,0.1,6-1.6,8.5C643.8,148.7,640.2,150.5,636.5,150.5z M636.6,132.6c-2.2,0-4.3,1.1-5.6,3
			c-2,3.1-1.1,7.2,2,9.2c3.1,2,7.2,1.1,9.2-2c1-1.5,1.3-3.3,0.9-5c-0.4-1.7-1.4-3.2-2.9-4.2C639.1,132.9,637.8,132.6,636.6,132.6z"
			/>
	</g>
	<g>
		
			<ellipse transform="matrix(0.5449 -0.8385 0.8385 0.5449 204.0795 615.3255)" class="st7" cx="668.9" cy="119.6" rx="4.6" ry="4.6"/>
		<path class="st1" d="M668.9,126.2c-1.2,0-2.5-0.3-3.6-1.1c-1.5-1-2.5-2.4-2.9-4.2c-0.4-1.7,0-3.5,0.9-5c2-3,6.1-3.9,9.1-1.9
			c1.5,1,2.5,2.4,2.9,4.2c0.4,1.7,0,3.5-0.9,5l0,0C673.2,125.2,671.1,126.2,668.9,126.2z M668.9,117.1c-0.8,0-1.7,0.4-2.2,1.2
			c-0.4,0.6-0.5,1.3-0.4,1.9c0.1,0.7,0.5,1.3,1.1,1.6c0.6,0.4,1.3,0.5,1.9,0.4c0.7-0.1,1.3-0.5,1.6-1.1c0.4-0.6,0.5-1.3,0.4-1.9
			s-0.5-1.3-1.1-1.6C669.9,117.2,669.4,117.1,668.9,117.1z M672.8,122.1L672.8,122.1L672.8,122.1z"/>
	</g>
	<g>
		
			<ellipse transform="matrix(0.5449 -0.8385 0.8385 0.5449 184.3009 613.1962)" class="st8" cx="657.1" cy="136.8" rx="4.6" ry="4.6"/>
		<path class="st1" d="M657.1,143.4c-1.2,0-2.5-0.3-3.6-1.1c-1.5-1-2.5-2.4-2.9-4.2s0-3.5,0.9-5c1-1.5,2.4-2.5,4.2-2.9
			c1.7-0.4,3.5,0,5,0.9c1.5,1,2.5,2.4,2.9,4.2c0.4,1.7,0,3.5-0.9,5l0,0C661.3,142.3,659.2,143.4,657.1,143.4z M657.1,134.2
			c-0.2,0-0.4,0-0.5,0.1c-0.7,0.1-1.3,0.5-1.6,1.1c-0.4,0.6-0.5,1.3-0.4,1.9c0.1,0.7,0.5,1.3,1.1,1.6c1.2,0.8,2.8,0.4,3.6-0.8l0,0
			c0.4-0.6,0.5-1.3,0.4-1.9s-0.5-1.3-1.1-1.6C658.1,134.4,657.6,134.2,657.1,134.2z M660.9,139.3L660.9,139.3L660.9,139.3z"/>
	</g>
	<g>
		
			<ellipse transform="matrix(0.5449 -0.8385 0.8385 0.5449 193.1255 624.1501)" class="st9" cx="671.6" cy="134.2" rx="4.6" ry="4.6"/>
		<path class="st1" d="M671.6,140.7c-1.2,0-2.5-0.3-3.6-1.1l0,0c-3-2-3.9-6.1-1.9-9.1c1-1.5,2.4-2.5,4.2-2.9c1.7-0.4,3.5,0,5,0.9
			c3,2,3.9,6.1,1.9,9.1C675.8,139.7,673.7,140.7,671.6,140.7z M670.2,136.3c1.2,0.8,2.8,0.4,3.6-0.8c0.4-0.6,0.5-1.3,0.4-1.9
			s-0.5-1.3-1.1-1.6c-0.6-0.4-1.3-0.5-1.9-0.4c-0.7,0.1-1.3,0.5-1.6,1.1c-0.4,0.6-0.5,1.3-0.4,1.9S669.6,135.9,670.2,136.3
			L670.2,136.3z"/>
	</g>
	<g>
		
			<ellipse transform="matrix(0.5449 -0.8385 0.8385 0.5449 195.2548 604.3716)" class="st10" cx="654.4" cy="122.3" rx="4.6" ry="4.6"/>
		<path class="st1" d="M654.4,128.9c-1.3,0-2.5-0.4-3.6-1.1l0,0c-3-2-3.9-6.1-1.9-9.1c2-3,6.1-3.9,9.1-1.9c3,2,3.9,6.1,1.9,9.1
			c-1,1.5-2.4,2.5-4.2,2.9C655.3,128.8,654.9,128.9,654.4,128.9z M653,124.5c0.6,0.4,1.3,0.5,1.9,0.4c0.7-0.1,1.3-0.5,1.6-1.1
			c0.4-0.6,0.5-1.3,0.4-1.9s-0.5-1.3-1.1-1.6c-1.2-0.8-2.8-0.4-3.6,0.8C651.5,122.1,651.8,123.7,653,124.5L653,124.5z"/>
	</g>
	<g>
		<path class="st1" d="M614.5,65.4c-2,0.2-4.6,2.3-5.6,3.2l-3.2,2.9l4.2,1.1c10.6,2.7,21,8.9,21.1,9l2.5,1.5l0.9-2.8
			c0.1-0.2,1.5-4.8-2-8.8C629.1,67.6,616.1,65.2,614.5,65.4z"/>
		<path class="st1" d="M683.1,110c-0.5-1.6-7.9-12.4-12.8-13.9c-5.1-1.6-8.7,1.6-8.9,1.7l-2.2,1.9l2.4,1.7c0.1,0.1,10,7.1,16.8,15.7
			l2.7,3.4l1.3-4.1C682.8,115.1,683.7,111.9,683.1,110z"/>
	</g>
</g>
<g>
	<g>
		<path class="st11" d="M487.9,86.1l8.7-3.3c1.8-0.7,3-2.2,3.4-4l4.1-20.5c0.5-2.6-0.9-5.3-3.4-6.2l-13.8-5.2
			c-1.7-0.7-3.7-0.4-5.2,0.7l-6.8,6.7c-0.8,0.8-2.1,0.3-2.2-0.8l-0.7-9.6c-0.4-1.8-1.7-3.3-3.4-4l-13.8-5.2
			c-2.5-0.9-5.3,0.1-6.7,2.4l-10.4,18.1c-0.9,1.6-1,3.6-0.1,5.3l17.4,33c1.3,2.5,4.2,3.6,6.8,2.6l5.7-2.2"/>
		<path class="st1" d="M459.7,99c-2.9,0-5.7-1.6-7.1-4.3l-17.4-33c-1.3-2.4-1.2-5.3,0.1-7.7l10.4-18.1c2-3.4,6.1-4.9,9.7-3.5
			l13.8,5.2c2.6,1,4.4,3.1,5,5.8l0,0.3l0.5,6.9l5.2-5.1c2.2-1.6,5-2,7.6-1.1l13.8,5.2c3.7,1.4,5.8,5.2,5,9.1l-4.1,20.5
			c-0.5,2.7-2.4,4.9-5,5.9l-8.7,3.3c-1.3,0.5-2.7-0.2-3.2-1.4c-0.5-1.3,0.2-2.7,1.4-3.2l8.7-3.3c1-0.4,1.7-1.2,1.9-2.2l4.1-20.5
			c0.3-1.4-0.5-2.9-1.9-3.4l-13.8-5.2c-0.9-0.3-1.9-0.2-2.7,0.3l-6.7,6.6c-1.1,1.1-2.6,1.4-4,0.8c-1.4-0.5-2.3-1.8-2.4-3.3l-0.7-9.3
			c-0.2-0.9-0.9-1.7-1.8-2L453.8,37c-1.4-0.5-2.9,0-3.6,1.3l-10.4,18.1c-0.5,0.9-0.5,2-0.1,2.9l17.4,33c0.7,1.3,2.3,1.9,3.7,1.4
			l5.7-2.2c1.3-0.5,2.7,0.2,3.2,1.4c0.5,1.3-0.2,2.7-1.4,3.2l-5.7,2.2C461.6,98.8,460.7,99,459.7,99z"/>
	</g>
	<g>
		<path class="st12" d="M446.5,56.8c-0.3,0-0.6-0.1-0.9-0.2c-1-0.5-1.3-1.7-0.8-2.7l4.5-8.4c1.4-2.6,4.5-4,7.4-3.2l7.6,2.5
			c1,0.4,1.6,1.5,1.3,2.5c-0.4,1-1.5,1.6-2.5,1.3l-7.5-2.5c-1-0.3-2.2,0.2-2.7,1.2l-4.5,8.4C447.9,56.4,447.2,56.8,446.5,56.8z"/>
	</g>
</g>
<g>
	<g>
		<path class="st11" d="M1278.5,524l1-3.1c0.6-1.8,0.2-3.7-1-5.2l-13.4-16c-1.7-2.1-4.7-2.6-7-1.2l-12.7,7.5
			c-1.6,0.9-2.6,2.6-2.7,4.5l1,9.5c0.1,1.1-1.1,1.8-2,1.2l-7.9-5.5c-1.7-0.8-3.6-0.8-5.3,0.2l-12.7,7.5c-2.3,1.4-3.3,4.2-2.3,6.7
			l7.6,19.4c0.7,1.8,2.2,3,4.1,3.4l36.6,7.2c2.7,0.5,5.4-1.1,6.3-3.7l4.2-13.1"/>
	</g>
	<g>
		<g>
			<path class="st1" d="M1262.8,562.7c-0.5,0-1,0-1.5-0.1l-36.6-7.2c-2.7-0.5-4.9-2.4-5.9-4.9l-7.6-19.4c-1.4-3.7,0-7.8,3.4-9.8
				l12.7-7.5c2.4-1.4,5.2-1.5,7.6-0.3l0.3,0.2l5.7,4l-0.7-7.1l0-0.2c0.1-2.7,1.6-5.2,3.9-6.6c1.2-0.7,2.7-0.3,3.4,0.9
				c0.7,1.2,0.3,2.7-0.9,3.4c-0.8,0.5-1.4,1.3-1.5,2.3l1,9.3c0.2,1.5-0.6,2.9-1.8,3.6c-1.3,0.8-2.8,0.7-4.1-0.2l-7.7-5.3
				c-0.9-0.4-1.9-0.3-2.7,0.2l-12.7,7.5c-1.3,0.7-1.8,2.3-1.3,3.7l7.6,19.4c0.4,1,1.2,1.6,2.2,1.8l36.6,7.2c1.5,0.3,2.9-0.6,3.4-2
				l11.5-35.5c0.3-1,0.1-2-0.5-2.8l-13.4-16c-0.9-1.1-2.5-1.4-3.8-0.7c-1.2,0.7-2.7,0.3-3.4-0.9c-0.7-1.2-0.3-2.7,0.9-3.4
				c3.4-2,7.7-1.3,10.2,1.8l13.4,16c1.8,2.1,2.3,4.9,1.5,7.6l-11.5,35.5C1269.3,560.5,1266.2,562.7,1262.8,562.7z"/>
		</g>
	</g>
	<g>
		<path class="st12" d="M1226.4,544.4c-0.8,0-1.5-0.5-1.8-1.2l-3.7-8.7c-1.2-2.8-0.2-6,2.2-7.8l6.7-4.3c0.9-0.6,2.2-0.3,2.8,0.6
			s0.3,2.2-0.6,2.8l-6.7,4.3c-0.9,0.6-1.2,1.8-0.8,2.9l3.7,8.7c0.4,1,0,2.2-1.1,2.6C1226.9,544.3,1226.6,544.4,1226.4,544.4z"/>
	</g>
</g>
<g>
	<g>
		<g>
			<g>
				<path class="st11" d="M260.6,436.6c-1.7-0.7-3.4-1.1-5.1-1.2c0.8,2.4,1.3,5,1.3,7.7c0,2.8-0.4,5.7-1.5,8.6
					c-2,5.6-5.9,10-10.7,12.8c-0.4,0.2-0.7,0.4-1.1,0.6c1.3,1.1,2.8,2,4.5,2.7c8.6,3.5,18.4-0.7,21.8-9.3
					C273.3,449.8,269.2,440.1,260.6,436.6z"/>
				<path class="st1" d="M254.3,470.9c-2.4,0-4.8-0.5-7-1.4c-1.8-0.7-3.5-1.8-5-3l-2.3-1.9l3-1.6c0.2-0.1,0.4-0.2,0.7-0.3
					c4.6-2.6,8.1-6.8,9.8-11.7c0.9-2.5,1.4-5.2,1.3-7.9c0-2.4-0.4-4.7-1.2-7l-1-2.9l3,0.2c2,0.1,3.9,0.6,5.7,1.3h0
					c9.6,3.9,14.3,14.8,10.4,24.4c-1.9,4.7-5.5,8.3-10.1,10.3C259.3,470.4,256.8,470.9,254.3,470.9z M247.2,465.1
					c0.5,0.3,1,0.5,1.5,0.7c3.7,1.5,7.7,1.4,11.3-0.1s6.5-4.4,7.9-8.1c3.1-7.6-0.6-16.2-8.2-19.2h0c-0.5-0.2-1.1-0.4-1.6-0.5
					c0.4,1.7,0.6,3.4,0.6,5.1c0,3.2-0.5,6.3-1.6,9.3C255.3,457.5,251.8,462,247.2,465.1z"/>
			</g>
		</g>
		<g>
			<g>
				
					<ellipse transform="matrix(0.3744 -0.9273 0.9273 0.3744 -265.6882 492.783)" class="st11" cx="232.4" cy="443.3" rx="16.8" ry="16.8"/>
				<path class="st1" d="M232.3,462.1c-2.3,0-4.7-0.4-7-1.4c-9.6-3.9-14.3-14.8-10.4-24.4c1.9-4.7,5.5-8.3,10.1-10.3
					c4.6-2,9.7-2,14.4-0.1c4.7,1.9,8.3,5.5,10.3,10.1c2,4.6,2,9.7,0.1,14.4C246.8,457.6,239.8,462.1,232.3,462.1z M232.4,428.5
					c-2,0-3.9,0.4-5.8,1.2c-3.6,1.5-6.5,4.4-7.9,8.1c-3.1,7.6,0.6,16.2,8.2,19.2c7.6,3,16.2-0.6,19.2-8.2c1.5-3.7,1.4-7.7-0.1-11.3
					c-1.5-3.6-4.4-6.4-8.1-7.9C236.1,428.9,234.2,428.5,232.4,428.5z"/>
			</g>
		</g>
		<g>
			<path class="st13" d="M263.6,396.3c-13.1,6.3-21.1,16.6-25.2,23.3c1,0.3,2.1,0.6,3.1,1c1.5,0.6,3,1.4,4.3,2.3
				c2.2-3.5,5.6-7.9,10.3-12.1c0.6,4.2,1,10.3,0.1,17c2.4,0.2,4.9,0.7,7.2,1.7c0.2,0.1,0.4,0.2,0.6,0.2c1.7-10.4,0.3-19.6-0.7-24.2
				c4.6-2.8,10.1-5,16.5-6.1c2.2-0.4,3.6-2.4,3.3-4.6c-0.4-2.2-2.4-3.6-4.6-3.3"/>
			<path class="st1" d="M265.6,432.6l-2.6-1.1c-0.1,0-0.2-0.1-0.3-0.1c-2.1-0.9-4.4-1.4-6.6-1.6l-2.1-0.2l0.3-2.1
				c0.7-4.6,0.7-9,0.4-12.5c-2.6,2.7-5,5.7-7.1,8.9l-1.1,1.7l-1.7-1.1c-1.2-0.8-2.6-1.5-4-2.1c-0.9-0.4-1.9-0.7-2.9-0.9l-2.6-0.7
				l1.4-2.3c4.5-7.5,12.8-17.7,26-24.1c1-0.5,2.2-0.1,2.7,0.9c0.5,1,0.1,2.2-0.9,2.7c-11.2,5.4-18.5,13.7-23,20.4
				c0.3,0.1,0.5,0.2,0.8,0.3c1,0.4,2,0.9,3,1.4c2.8-4.1,6-7.7,9.6-10.9l2.8-2.4l0.5,3.6c0.5,3.7,1,9.3,0.3,15.5
				c1.3,0.2,2.6,0.5,3.9,0.9c1.1-9.1-0.1-17-1-21l-0.3-1.4l1.2-0.7c5.3-3.2,11.1-5.3,17.2-6.4c0.5-0.1,1-0.4,1.3-0.8s0.4-1,0.3-1.5
				c-0.2-1.1-1.2-1.8-2.3-1.6c-1.1,0.2-2.1-0.6-2.3-1.6c-0.2-1.1,0.6-2.1,1.6-2.3c3.3-0.5,6.4,1.7,6.9,4.9c0.3,1.6-0.1,3.2-1,4.5
				c-0.9,1.3-2.3,2.2-3.9,2.4c-5.1,0.9-10,2.6-14.5,5.1c1,5,2,13.7,0.4,23.5L265.6,432.6z"/>
		</g>
	</g>
	<g>
		<path class="st12" d="M223.7,439c-0.4,0-0.9-0.1-1.3-0.4c-0.9-0.7-1-2-0.3-2.8c4.6-5.7,11.8-4.9,12.1-4.8c1.1,0.1,1.9,1.1,1.7,2.2
			c-0.1,1.1-1.1,1.9-2.2,1.7c-0.2,0-5.2-0.5-8.5,3.4C224.9,438.7,224.3,439,223.7,439z"/>
	</g>
</g>
<g>
	<path class="st0" d="M1267.6,51.7l10.5,7.2c1.5,1,3.4,1.2,5,0.6l11.9-4.6c4.2-1.6,8.4,2.3,7.2,6.6l-1.4,4.7l-2.2,7.5
		c-0.5,1.7-0.1,3.6,1,4.9l8,9.9c2.8,3.5,0.4,8.7-4,8.8l-12.7,0.4c-1.8,0.1-3.4,1-4.4,2.5l-6.9,10.7c-2.4,3.8-8.1,3.1-9.7-1.1
		l-4.3-12c-0.6-1.7-2-3-3.7-3.4l-12.3-3.3c-4.3-1.2-5.5-6.8-1.9-9.5l10.1-7.8c1.4-1.1,2.2-2.8,2.1-4.6l-0.7-12.7
		C1258.9,52,1263.9,49.2,1267.6,51.7z"/>
	<g>
		<path class="st1" d="M1275.1,115.8c-0.3,0-0.6,0-0.9-0.1c-3-0.3-5.5-2.3-6.6-5.2l-4.3-12c-0.3-0.9-1.1-1.6-2-1.8l-12.3-3.3
			c-2.9-0.8-5.1-3.1-5.7-6.1c-0.6-3,0.5-6,2.9-7.8l10.1-7.8c0.8-0.6,1.2-1.5,1.1-2.5l-0.7-12.7c-0.2-3,1.4-5.8,4-7.3
			c2.6-1.5,5.9-1.4,8.4,0.4l10.5,7.2c0.8,0.5,1.8,0.7,2.7,0.3l11.9-4.6c2.8-1.1,6-0.5,8.2,1.6c2.2,2.1,3.1,5.1,2.2,8.1l-3.6,12.2
			c-0.4,1.3-1.8,2.1-3.1,1.7c-1.3-0.4-2.1-1.8-1.7-3.1l3.6-12.2c0.3-1.1,0-2.2-0.8-3c-0.8-0.8-2-1-3-0.6l-11.9,4.6
			c-2.4,0.9-5.2,0.6-7.3-0.8l-10.5-7.2c-0.9-0.6-2.1-0.7-3.1-0.1c-1,0.6-1.5,1.6-1.5,2.7l0.7,12.7c0.1,2.6-1,5.1-3.1,6.7l-10.1,7.8
			c-0.9,0.7-1.3,1.8-1.1,2.9c0.2,1.1,1,2,2.1,2.2l12.3,3.3c2.5,0.7,4.6,2.5,5.4,5l4.3,12c0.4,1.1,1.3,1.8,2.4,1.9
			c1.1,0.1,2.2-0.4,2.8-1.3l6.9-10.7c1.4-2.2,3.8-3.5,6.4-3.6l12.7-0.4c1.1,0,2.1-0.7,2.6-1.7c0.5-1,0.3-2.2-0.4-3.1
			c-0.9-1.1-0.7-2.6,0.4-3.5c1.1-0.9,2.6-0.7,3.5,0.4c1.9,2.4,2.3,5.5,1.1,8.3c-1.3,2.8-3.9,4.5-7,4.6l-12.7,0.4
			c-1,0-1.8,0.5-2.4,1.3l-6.9,10.7C1280.2,114.5,1277.7,115.8,1275.1,115.8z"/>
	</g>
</g>
<g>
	<path class="st0" d="M33.2,433.2l2.7,9.4c0.4,1.3,1.4,2.4,2.7,2.8l9.3,3.1c3.3,1.1,3.9,5.5,1,7.4l-8.1,5.5
		c-1.1,0.8-1.8,2.1-1.8,3.4l0,9.8c0,3.5-4,5.4-6.7,3.3l-7.7-6c-1.1-0.8-2.5-1.1-3.8-0.7l-9.3,3c-3.3,1.1-6.4-2.1-5.2-5.4l3.3-9.2
		c0.5-1.3,0.3-2.7-0.5-3.8l-5.7-7.9c-2-2.8,0.1-6.7,3.5-6.6l9.8,0.3c1.4,0,2.7-0.6,3.5-1.7l5.8-7.9
		C27.9,429.1,32.3,429.9,33.2,433.2z"/>
	<g>
		<path class="st1" d="M34.9,481.3c-1.4,0-2.9-0.5-4.1-1.4l-7.7-6c-0.4-0.3-1-0.4-1.5-0.3l-9.3,3c-2.4,0.8-5.1,0.1-6.8-1.7
			C3.6,473,3,470.4,3.9,468l3.3-9.2c0.2-0.5,0.1-1.1-0.2-1.5l-5.7-7.9c-1.5-2.1-1.7-4.8-0.5-7s3.5-3.6,6.1-3.5
			c1.4,0,2.5,1.2,2.4,2.6c0,1.4-1.2,2.5-2.6,2.4c-0.9,0-1.4,0.6-1.5,0.9c-0.1,0.3-0.4,1,0.1,1.8l5.7,7.9c1.3,1.8,1.6,4.1,0.9,6.1
			l-3.3,9.2c-0.3,0.9,0.2,1.5,0.4,1.7c0.2,0.2,0.8,0.7,1.7,0.4l9.3-3c2.1-0.7,4.4-0.3,6.1,1.1l7.7,6c0.7,0.6,1.5,0.3,1.8,0.2
			c0.3-0.1,0.9-0.6,0.9-1.5l0-9.8c0-2.2,1.1-4.2,2.9-5.5l8.1-5.5c0.8-0.5,0.8-1.3,0.7-1.6c0-0.3-0.2-1.1-1.1-1.4l-9.3-3.1
			c-2.1-0.7-3.7-2.4-4.3-4.5l-2.7-9.4c-0.3-0.9-1-1.1-1.3-1.2c-0.3-0.1-1.1-0.1-1.6,0.7l-5.8,7.9c-0.8,1.1-2.4,1.4-3.5,0.5
			c-1.1-0.8-1.4-2.4-0.5-3.5l5.8-7.9c1.5-2.1,4-3.1,6.5-2.6c2.5,0.4,4.5,2.2,5.2,4.7l2.7,9.4c0.2,0.5,0.6,0.9,1.1,1.1l9.3,3.1
			c2.4,0.8,4.2,2.9,4.5,5.4c0.4,2.5-0.7,5-2.9,6.4l-8.1,5.5c-0.5,0.3-0.7,0.8-0.7,1.4l0,9.8c0,2.6-1.4,4.8-3.7,6
			C36.9,481.1,35.9,481.3,34.9,481.3z"/>
	</g>
</g>
<g>
	<g>
		<path class="st14" d="M764.5,145.6l0.1,20.7c0,0.2-0.1,0.4-0.3,0.4l-22.1,3c-0.2,0-0.4-0.1-0.4-0.4l-0.1-20.7
			c0-0.2,0.1-0.4,0.3-0.4l22.1-3C764.3,145.2,764.5,145.4,764.5,145.6z"/>
		<path class="st15" d="M765.2,146.3l8.3,12.4c0,0.1,0.1,0.1,0.1,0.2l0.1,20.1c0,0.4-0.5,0.5-0.7,0.2l-8.3-12.4
			c0-0.1-0.1-0.1-0.1-0.2l-0.1-20.1C764.5,146.1,765,145.9,765.2,146.3z"/>
		<path class="st15" d="M764.8,166.8l8.6,12.8c0.2,0.2,0,0.6-0.3,0.6l-22.1,2.9c-0.1,0-0.3,0-0.4-0.2l-8.6-12.8
			c-0.2-0.2,0-0.6,0.3-0.6l22.1-2.9C764.5,166.7,764.7,166.7,764.8,166.8z"/>
		<path class="st1" d="M775.7,178.9l-0.1-20.1c0-0.5-0.1-0.9-0.4-1.3l-8.3-12.4c-0.2-0.3-1-1.2-1.2-1.3c-0.5-0.4-1.2-0.7-1.9-0.6
			l-22.1,3c-1.2,0.2-2.1,1.2-2.1,2.4l0.1,20.7c0,0.4,0.1,0.8,0.3,1.2c0.1,0.3,0.2,0.6,0.3,0.9l8.6,12.8c0.5,0.7,1.2,1.1,2,1.1
			c0.1,0,0.2,0,0.3,0l22.1-2.9c0.8-0.1,1.5-0.6,1.9-1.4c0.1-0.3,0.2-0.5,0.2-0.8C775.6,179.7,775.7,179.3,775.7,178.9z M771.5,159.3
			l0.1,14.2l-5-7.5l-0.1-9.6l0-4.6L771.5,159.3z M762.5,147.5l0.1,11.4l0,6l-18.9,2.5l-0.1-17.4L762.5,147.5z M745.1,171.3l18.5-2.5
			l3.3,4.9l3.3,4.9l-18.5,2.5L745.1,171.3z"/>
	</g>
	<g>
		<path class="st15" d="M178.3,332.2l1.1,20.1c0,0.1-0.1,0.2-0.2,0.3l-22.7,3.6c-0.1,0-0.3-0.1-0.3-0.2l-1.1-20.1
			c0-0.1,0.1-0.2,0.2-0.3l22.7-3.6C178.2,331.9,178.3,332,178.3,332.2z"/>
		<path class="st15" d="M155.6,355l-4.3-9.1c0,0,0-0.1,0-0.1l-1-19.2c0-0.3,0.4-0.4,0.5-0.1l4.3,9.1c0,0,0,0.1,0,0.1l1,19.2
			C156.1,355.1,155.7,355.2,155.6,355z"/>
		<path class="st14" d="M155,335.4l-4.6-9.9c-0.1-0.2,0-0.3,0.2-0.4l22.7-3.6c0.1,0,0.2,0,0.3,0.1l4.6,9.9c0.1,0.2,0,0.3-0.2,0.4
			l-22.7,3.6C155.2,335.6,155,335.5,155,335.4z"/>
		<path class="st1" d="M180.3,332.1c0-0.2-0.1-0.5-0.2-0.7c0-0.2-0.1-0.4-0.2-0.6l-4.6-9.9c-0.4-0.9-1.4-1.4-2.4-1.3l-22.7,3.6
			c-0.7,0.1-1.3,0.5-1.6,1.2c-0.2,0.5-0.3,1-0.2,1.5c-0.1,0.2-0.1,0.5-0.1,0.8l1,19.2l0,0.5l4.4,9.5c0.1,0.2,0.8,1.5,1.2,1.8
			c0.4,0.3,0.9,0.5,1.4,0.5c0.1,0,0.2,0,0.4,0l22.7-3.6c1.1-0.2,2-1.2,1.9-2.3L180.3,332.1z M175.4,330.3l-6.5,1l-12.7,2l-3.1-6.6
			l19.1-3L175.4,330.3z M152.8,335.3l0.3,0.7l0.5,9.9l-0.3-0.7L152.8,335.3z M158.1,353.8l-0.9-16.5l5.9-0.9l13.3-2.1l0.9,16.5
			L158.1,353.8z"/>
	</g>
	<path class="st14" d="M1150,522.9l9.7,16.9c0.2,0.3,0.1,0.7-0.1,0.9l-15,14c-0.4,0.3-0.9,0.2-1.2-0.2l-9.7-16.9
		c-0.2-0.3-0.1-0.7,0.1-0.9l15-14C1149.2,522.4,1149.7,522.5,1150,522.9z"/>
	<path class="st15" d="M1151.2,522.5l10.7,2.7c0.2,0,0.4,0.2,0.5,0.4l9.4,16.5c0.3,0.6-0.2,1.3-0.8,1.1l-10.7-2.7
		c-0.2,0-0.4-0.2-0.5-0.4l-9.4-16.5C1150.1,523.1,1150.6,522.4,1151.2,522.5z"/>
	<path class="st15" d="M1160.4,540.5l11,2.7c0.6,0.1,0.8,0.9,0.3,1.3l-14.8,13.8c-0.2,0.2-0.4,0.2-0.7,0.2l-11-2.7
		c-0.6-0.1-0.8-0.9-0.3-1.3l14.8-13.8C1159.8,540.5,1160.1,540.4,1160.4,540.5z"/>
	<path class="st1" d="M1173.5,541l-9.4-16.5c-0.4-0.6-1-1.1-1.7-1.3l-10.7-2.7v0c-0.5-0.1-2.4-0.9-4.2,0.7l-15,14
		c-0.9,0.9-1.1,2.3-0.5,3.4l9.7,16.9c0.4,0.6,2.5,2,3.1,2.1l11,2.7c0.2,0.1,0.4,0.1,0.7,0.1c0.7,0,1.4-0.3,1.9-0.7l14.8-13.8
		C1173.8,545.2,1175.2,544.1,1173.5,541z M1160.9,527l7.7,13.4l-7.3-1.8l-7.7-13.4L1160.9,527z M1148.2,523.9L1148.2,523.9
		C1148.2,523.9,1148.2,523.9,1148.2,523.9L1148.2,523.9z M1136,537.5l13.1-12.2l2.2,3.9l6.2,10.8l-4.6,4.3l-8.4,7.9L1136,537.5z
		 M1156,556.3l-8.1-2l5.1-4.7l7.5-7l8.1,2L1156,556.3z"/>
	<g>
		<path class="st15" d="M464.4,246.5l-3.9,19c0,0.1-0.1,0.3-0.3,0.3l-13.8,6.8c-0.4,0.2-0.7-0.1-0.7-0.5l3.8-18.4
			c0.1-0.5,0.4-0.9,0.9-1.1l13.3-6.5C464.1,245.8,464.5,246.1,464.4,246.5z"/>
		<path class="st14" d="M445,272.6l-15.4-8.9c-0.2-0.1-0.3-0.3-0.2-0.5l4-19.2c0.1-0.3,0.4-0.5,0.7-0.3l14.6,8.5
			c0.6,0.4,0.9,1.1,0.8,1.8l-3.8,18.4C445.6,272.6,445.3,272.8,445,272.6z"/>
		<path class="st15" d="M449,252.4l-14.7-8.5c-0.3-0.2-0.3-0.7,0-0.8l13.3-6.5c0.5-0.2,1.1-0.2,1.5,0.1l14.7,8.5
			c0.3,0.2,0.3,0.7,0,0.8l-13.3,6.5C450,252.7,449.4,252.7,449,252.4z"/>
		<path class="st1" d="M464.9,243.4l-14.7-8.5c-1.1-0.6-2.3-0.7-3.4-0.1l-13.3,6.5c-1.7,0.7-1.9,1.8-2,2.4l-4,19.2
			c-0.2,1,0.3,2.1,1.2,2.6l15.4,8.9c0.4,0.2,1.2,0.6,1.9,0.5c0.6-0.1,1-0.3,1.4-0.5l13.8-6.8c0.7-0.3,1.2-1,1.3-1.7l3.9-19
			C466.5,246.2,466.4,244.2,464.9,243.4z M448.3,238.4l12.1,7l-10.6,5.2l-0.1-0.1l0,0l-2.6-1.5l-9.4-5.5L448.3,238.4z M434.9,246.5
			L434.9,246.5l12.6,7.3l-1.3,6.4l-2,9.6l-12.6-7.3L434.9,246.5z M458.7,264.3l-10.4,5.1l3.1-15l0,0l0-0.2l10.4-5.1L458.7,264.3z"/>
	</g>
	<g>
		<path class="st15" d="M45.3,28.1l-2.4,17.9c0,0.2-0.1,0.3-0.3,0.4L28.6,55c-0.4,0.2-0.9-0.1-0.8-0.5l2.4-17.9
			c0-0.2,0.1-0.3,0.3-0.4l14.1-8.6C44.9,27.3,45.4,27.6,45.3,28.1z"/>
		<path class="st14" d="M26.9,55.1l-15.2-8.8c-0.2-0.1-0.3-0.3-0.3-0.5l2.4-18.1c0.1-0.4,0.5-0.6,0.8-0.4l15.2,8.8
			c0.2,0.1,0.3,0.3,0.3,0.5l-2.4,18.1C27.7,55.1,27.3,55.3,26.9,55.1z"/>
		<path class="st15" d="M29.9,36.1l-15.2-8.8c-0.4-0.2-0.4-0.7,0-0.9L29,17.7c0.2-0.1,0.4-0.1,0.6,0l15.2,8.8c0.4,0.2,0.4,0.7,0,0.9
			l-14.2,8.7C30.3,36.2,30.1,36.2,29.9,36.1z"/>
		<path class="st1" d="M45.7,24.7l-15.2-8.8c-0.8-0.5-1.8-0.5-2.6,0l-14.2,8.7c-1.6,0.7-1.7,2.1-1.8,2.7L9.5,45.5
			c-0.1,1,0.4,2,1.2,2.5l15.2,8.8c0.4,0.2,2.1,0.7,3.7-0.2L43.7,48c0.7-0.4,1.1-1.1,1.2-1.8l2.4-17.9C47.4,27.7,47.9,25.9,45.7,24.7
			z M29.3,19.8L41.6,27l-11.4,7l-4-2.3l-8.3-4.8L29.3,19.8z M15.5,30.1l9,5.2l3.5,2l-2,15l-12.5-7.3L15.5,30.1z M30.2,51.7L32,37.5
			l7.8-4.8l3.1-1.9L41,45L30.2,51.7z"/>
	</g>
</g>
<g>
	<g>
		<path class="st16" d="M817.1,424.1h-19.6c-1.4,0-2.6-0.7-3.3-1.9c-0.7-1.2-0.7-2.6,0-3.8l9.8-17c0.7-1.2,1.9-1.9,3.3-1.9
			c1.4,0,2.6,0.7,3.3,1.9l9.8,17c0.7,1.2,0.7,2.6,0,3.8C819.7,423.3,818.5,424.1,817.1,424.1z M817,420.3L817,420.3L817,420.3z
			 M797.8,420.1h19l-9.5-16.5L797.8,420.1z"/>
	</g>
	<g>
		<path class="st16" d="M975.4,160.4c-0.7,0-1.3-0.2-1.9-0.5c-1.2-0.7-1.9-1.9-1.9-3.3V137c0-1.4,0.7-2.6,1.9-3.3
			c1.2-0.7,2.6-0.7,3.8,0l17,9.8c1.2,0.7,1.9,1.9,1.9,3.3c0,1.4-0.7,2.6-1.9,3.3l-17,9.8C976.8,160.3,976.1,160.4,975.4,160.4z
			 M975.6,137.3v19l16.5-9.5L975.6,137.3z M993.3,148.4L993.3,148.4L993.3,148.4z M992.3,146.7L992.3,146.7L992.3,146.7z"/>
	</g>
	<g>
		<path class="st16" d="M615.6,269.5c-0.7,0-1.3-0.2-1.9-0.5l-17-9.8c-1.2-0.7-1.9-1.9-1.9-3.3c0-1.4,0.7-2.6,1.9-3.3l17-9.8
			c1.2-0.7,2.6-0.7,3.8,0s1.9,1.9,1.9,3.3v19.6c0,1.4-0.7,2.6-1.9,3.3C616.9,269.3,616.3,269.5,615.6,269.5z M599,255.9l16.5,9.5
			v-19L599,255.9z M598.7,256L598.7,256L598.7,256z"/>
	</g>
	<g>
		<path class="st16" d="M593.2,219.5L593.2,219.5c-1.4,0-2.6-0.7-3.3-1.9l-9.8-17c-0.7-1.2-0.7-2.6,0-3.8c0.7-1.2,1.9-1.9,3.3-1.9
			H603c1.4,0,2.6,0.7,3.3,1.9c0.7,1.2,0.7,2.6,0,3.8l-9.8,17C595.8,218.8,594.6,219.5,593.2,219.5z M593.3,215.6L593.3,215.6
			L593.3,215.6z M583.7,198.9l9.5,16.5l9.5-16.5H583.7z"/>
	</g>
	<g>
		<path class="st16" d="M368.1,397.7L368.1,397.7c1.4,0,2.6,0.7,3.3,1.9l9.8,17c0.7,1.2,0.7,2.6,0,3.8c-0.7,1.2-1.9,1.9-3.3,1.9
			h-19.6c-1.4,0-2.6-0.7-3.3-1.9c-0.7-1.2-0.7-2.6,0-3.8l9.8-17C365.5,398.4,366.8,397.7,368.1,397.7z M368,401.6L368,401.6
			L368,401.6z M377.7,418.3l-9.5-16.5l-9.5,16.5H377.7z"/>
	</g>
	<g>
		<path class="st16" d="M1297.7,254.5L1297.7,254.5c-1.4,0-2.6-0.7-3.3-1.9l-9.8-17c-0.7-1.2-0.7-2.6,0-3.8c0.7-1.2,1.9-1.9,3.3-1.9
			h19.6c1.4,0,2.6,0.7,3.3,1.9c0.7,1.2,0.7,2.6,0,3.8l-9.8,17C1300.4,253.8,1299.1,254.5,1297.7,254.5z M1297.9,250.6L1297.9,250.6
			L1297.9,250.6z M1288.2,233.9l9.5,16.5l9.5-16.5H1288.2z"/>
	</g>
	<g>
		<path class="st16" d="M346.5,565.9c-0.7,0-1.3-0.2-1.9-0.5l-17-9.8c-1.2-0.7-1.9-1.9-1.9-3.3c0-1.4,0.7-2.6,1.9-3.3l17-9.8
			c1.2-0.7,2.6-0.7,3.8,0c1.2,0.7,1.9,1.9,1.9,3.3v19.6c0,1.4-0.7,2.6-1.9,3.3C347.8,565.7,347.1,565.9,346.5,565.9z M329.8,552.3
			l16.5,9.5v-19L329.8,552.3z M328.6,550.7L328.6,550.7L328.6,550.7z"/>
	</g>
	<path class="st16" d="M1195.6,494.1l5.9-5.9c0.8-0.8,0.8-2,0-2.8s-2-0.8-2.8,0l-5.9,5.9l-5.9-5.9c-0.8-0.8-2-0.8-2.8,0
		s-0.8,2,0,2.8l5.9,5.9l-5.9,5.9c-0.8,0.8-0.8,2,0,2.8c0.4,0.4,0.9,0.6,1.4,0.6s1-0.2,1.4-0.6l5.9-5.9l5.9,5.9
		c0.4,0.4,0.9,0.6,1.4,0.6s1-0.2,1.4-0.6c0.8-0.8,0.8-2,0-2.8L1195.6,494.1z"/>
	<path class="st16" d="M467.2,178.2l5.9-5.9c0.8-0.8,0.8-2,0-2.8c-0.8-0.8-2-0.8-2.8,0l-5.9,5.9l-5.9-5.9c-0.8-0.8-2-0.8-2.8,0
		c-0.8,0.8-0.8,2,0,2.8l5.9,5.9l-5.9,5.9c-0.8,0.8-0.8,2,0,2.8c0.4,0.4,0.9,0.6,1.4,0.6s1-0.2,1.4-0.6l5.9-5.9l5.9,5.9
		c0.4,0.4,0.9,0.6,1.4,0.6s1-0.2,1.4-0.6c0.8-0.8,0.8-2,0-2.8L467.2,178.2z"/>
	<path class="st16" d="M214.8,352.7l5.9-5.9c0.8-0.8,0.8-2,0-2.8s-2-0.8-2.8,0l-5.9,5.9l-5.9-5.9c-0.8-0.8-2-0.8-2.8,0
		c-0.8,0.8-0.8,2,0,2.8l5.9,5.9l-5.9,5.9c-0.8,0.8-0.8,2,0,2.8c0.4,0.4,0.9,0.6,1.4,0.6s1-0.2,1.4-0.6l5.9-5.9l5.9,5.9
		c0.4,0.4,0.9,0.6,1.4,0.6s1-0.2,1.4-0.6c0.8-0.8,0.8-2,0-2.8L214.8,352.7z"/>
	<path class="st16" d="M767.2,264.2l5.9-5.9c0.8-0.8,0.8-2,0-2.8c-0.8-0.8-2-0.8-2.8,0l-5.9,5.9l-5.9-5.9c-0.8-0.8-2-0.8-2.8,0
		c-0.8,0.8-0.8,2,0,2.8l5.9,5.9l-5.9,5.9c-0.8,0.8-0.8,2,0,2.8c0.4,0.4,0.9,0.6,1.4,0.6s1-0.2,1.4-0.6l5.9-5.9l5.9,5.9
		c0.4,0.4,0.9,0.6,1.4,0.6s1-0.2,1.4-0.6c0.8-0.8,0.8-2,0-2.8L767.2,264.2z"/>
	<path class="st16" d="M125.1,16.5l5.9-5.9c0.8-0.8,0.8-2,0-2.8c-0.8-0.8-2-0.8-2.8,0l-5.9,5.9l-5.9-5.9c-0.8-0.8-2-0.8-2.8,0
		c-0.8,0.8-0.8,2,0,2.8l5.9,5.9l-5.9,5.9c-0.8,0.8-0.8,2,0,2.8c0.4,0.4,0.9,0.6,1.4,0.6s1-0.2,1.4-0.6l5.9-5.9l5.9,5.9
		c0.4,0.4,0.9,0.6,1.4,0.6s1-0.2,1.4-0.6c0.8-0.8,0.8-2,0-2.8L125.1,16.5z"/>
	<g>
		<path class="st16" d="M733.7,362.7c-6.8,0-12.3-5.5-12.3-12.3c0-6.8,5.5-12.3,12.3-12.3s12.3,5.5,12.3,12.3
			C745.9,357.2,740.4,362.7,733.7,362.7z M733.7,342.2c-4.6,0-8.3,3.7-8.3,8.3s3.7,8.3,8.3,8.3s8.3-3.7,8.3-8.3
			S738.2,342.2,733.7,342.2z"/>
	</g>
	<g>
		<path class="st16" d="M801.2,171.6c-6.8,0-12.3-5.5-12.3-12.3s5.5-12.3,12.3-12.3c6.8,0,12.3,5.5,12.3,12.3S808,171.6,801.2,171.6
			z M801.2,151.1c-4.6,0-8.3,3.7-8.3,8.3c0,4.6,3.7,8.3,8.3,8.3s8.3-3.7,8.3-8.3C809.5,154.8,805.8,151.1,801.2,151.1z"/>
	</g>
	<g>
		<path class="st16" d="M1320.4,579.1c-6.8,0-12.3-5.5-12.3-12.3c0-6.8,5.5-12.3,12.3-12.3c6.8,0,12.3,5.5,12.3,12.3
			C1332.7,573.6,1327.2,579.1,1320.4,579.1z M1320.4,558.5c-4.6,0-8.3,3.7-8.3,8.3s3.7,8.3,8.3,8.3s8.3-3.7,8.3-8.3
			S1325,558.5,1320.4,558.5z"/>
	</g>
	<g>
		<path class="st16" d="M47.4,132.8c-6.8,0-12.3-5.5-12.3-12.3s5.5-12.3,12.3-12.3s12.3,5.5,12.3,12.3S54.2,132.8,47.4,132.8z
			 M47.4,112.2c-4.6,0-8.3,3.7-8.3,8.3c0,4.6,3.7,8.3,8.3,8.3c4.6,0,8.3-3.7,8.3-8.3C55.7,115.9,52,112.2,47.4,112.2z"/>
	</g>
	<g>
		<path class="st16" d="M317.3,331.8c-6.8,0-12.3-5.5-12.3-12.3s5.5-12.3,12.3-12.3s12.3,5.5,12.3,12.3S324.1,331.8,317.3,331.8z
			 M317.3,311.3c-4.6,0-8.3,3.7-8.3,8.3s3.7,8.3,8.3,8.3c4.6,0,8.3-3.7,8.3-8.3S321.9,311.3,317.3,311.3z"/>
	</g>
</g>
<g>
	<path class="st17" d="M936,185.5l-90.7,20.2c-26.9,6-43.8,32.6-37.8,59.5l51.7,232.4c6,26.9,32.6,43.8,59.5,37.8l325.6-72.4
		l60.2,37c7.5,4.6,17-2.1,15-10.7l-19.9-89.7l-5-22.4l-46.7-209.9c-6-26.9-32.6-43.8-59.5-37.8l-240.9,53.6"/>
	<path class="st18" d="M1171.9,134.3l-326.6,71.3c-26.9,6-43.8,32.6-37.8,59.5l51.7,232.4c6,26.9,32.6,43.8,59.5,37.8l325.6-72.4
		l60.8,37l-73.7-327.7C1225.4,145.3,1198.8,128.4,1171.9,134.3z"/>
	<path class="st18" d="M1054.6,3.6c-2.1,0.5-4.1,1.1-6.1,1.8c-20.6,7.7-32.8,29.6-27.9,51.6c3.5,15.7,14.8,27.5,28.9,32.5l8.9,39.8
		l46.1-10.3l-8.9-39.8c10.7-10.5,15.9-26,12.4-41.7C1102.7,13.4,1078.8-1.8,1054.6,3.6z"/>
	<path class="st17" d="M1108.1,37.6c-5.4-24.1-29.3-39.4-53.5-34c-2.1,0.5-4.1,1.1-6.1,1.8c21.9-1.7,42.3,12.9,47.2,34.9
		c3.5,15.7-1.7,31.2-12.4,41.7l8.9,39.8l-33.7,7.5l0,0l46.1-10.3l-8.9-39.8C1106.3,68.8,1111.6,53.3,1108.1,37.6z"/>
	<path class="st17" d="M1012.9,344.6c3,13.4-5.5,26.6-18.8,29.6l-34.2,7.6c-13.4,3-26.6-5.5-29.6-18.8l-7.6-34.3
		c-3-13.4,5.5-26.6,18.8-29.6l34.2-7.6c13.4-3,26.6,5.5,29.6,18.8L1012.9,344.6z"/>
	<path class="st17" d="M1153.9,313.2c3,13.4-5.5,26.6-18.8,29.6l-34.3,7.6c-13.4,3-26.6-5.5-29.6-18.8l-7.6-34.3
		c-3-13.4,5.5-26.6,18.8-29.6l34.3-7.6c13.4-3,26.6,5.5,29.6,18.8L1153.9,313.2z"/>
	<path class="st18" d="M897.9,38.4c-2.1,0.5-4.1,1.1-6.1,1.8C871.3,48,859,69.8,863.9,91.9c3.5,15.7,14.8,27.5,28.9,32.5l8.9,39.8
		l46.1-10.3l-8.9-39.8c10.7-10.5,15.9-26,12.4-41.7C946,48.3,922.1,33.1,897.9,38.4z"/>
	<path class="st17" d="M951.4,72.4c-5.4-24.1-29.3-39.4-53.5-34c-2.1,0.5-4.1,1.1-6.1,1.8c21.9-1.7,42.3,12.9,47.2,34.9
		c3.5,15.7-1.7,31.2-12.4,41.7l8.9,39.8l-33.7,7.5l0,0l46.1-10.3l-8.9-39.8C949.7,103.7,954.9,88.1,951.4,72.4z"/>
	<g>
		<path class="st1" d="M907.8,539c-24,0-45.7-16.6-51.1-41l-51.7-232.4c-6.3-28.2,11.6-56.2,39.7-62.5l47.5-10.6
			c1.3-0.3,2.7,0.5,3,1.9c0.3,1.3-0.5,2.7-1.9,3l-47.5,10.6c-25.5,5.7-41.6,31-35.9,56.5l51.7,232.4c5.7,25.5,31,41.6,56.5,35.9
			l279.1-62.1c1.3-0.3,2.7,0.5,3,1.9c0.3,1.3-0.5,2.7-1.9,3l-279.1,62.1C915.4,538.6,911.6,539,907.8,539z M1309.8,503.9
			c-2.3,0-4.5-0.6-6.6-1.9l-59.4-36.5l-9.8,2.2c-1.3,0.3-2.7-0.5-3-1.9s0.5-2.7,1.9-3l11.7-2.6l61.1,37.6c3.1,1.9,6.3,1.1,8.3-0.3
			c2-1.4,3.8-4.2,3-7.8l-71.6-322.1c-2.7-12.3-10.1-22.9-20.8-29.7c-10.7-6.8-23.3-9-35.7-6.3l-279.2,62.1c-1.3,0.3-2.7-0.5-3-1.9
			c-0.3-1.3,0.5-2.7,1.9-3l279.2-62.1c13.6-3,27.7-0.6,39.5,6.9c11.8,7.5,20,19.2,23,32.8l71.6,322.1c1.1,5-0.8,9.9-5,12.9
			C1314.8,503.1,1312.3,503.9,1309.8,503.9z M1212.2,472.5c-1.1,0-2.2-0.8-2.4-2c-0.3-1.3,0.5-2.7,1.9-3l10.9-2.4
			c1.3-0.3,2.7,0.5,3,1.9c0.3,1.3-0.5,2.7-1.9,3l-10.9,2.4C1212.6,472.5,1212.4,472.5,1212.2,472.5z"/>
	</g>
	<g>
		<path class="st1" d="M1056.5,132.4l-5.7-25.4c-0.3-1.3,0.5-2.7,1.9-3c1.4-0.3,2.7,0.5,3,1.9l4.6,20.5l41.2-9.2l-8.6-38.8l1-1
			c10.5-10.3,14.9-25.1,11.7-39.4c-2.5-11-9.1-20.4-18.6-26.5c-9.5-6.1-20.9-8.1-31.9-5.6c-1.9,0.4-3.8,1-5.7,1.7
			c-19.6,7.4-30.9,28.3-26.4,48.7c3.2,14.3,13.4,25.8,27.3,30.7l1.3,0.5l1.4,6.5c0.3,1.3-0.5,2.7-1.9,3c-1.3,0.3-2.7-0.5-3-1.9
			l-0.8-3.8c-14.9-5.7-25.8-18.3-29.2-33.8c-5.1-22.9,7.6-46.3,29.5-54.5c2.1-0.8,4.3-1.4,6.4-1.9c12.3-2.7,25-0.5,35.7,6.3
			c10.7,6.8,18,17.3,20.8,29.6c3.5,15.6-1.1,31.6-12.1,43l9.1,40.9L1056.5,132.4z"/>
	</g>
	<g>
		<path class="st1" d="M899.8,167.2l-9.1-40.9c-14.9-5.7-25.8-18.3-29.2-33.8c-4.1-18.2,3-37.2,18.1-48.3c1.1-0.8,2.7-0.6,3.5,0.5
			c0.8,1.1,0.6,2.7-0.5,3.5c-13.4,9.9-19.8,26.9-16.2,43.2c3.2,14.3,13.4,25.8,27.3,30.7l1.3,0.5l8.6,38.8l41.2-9.2l-8.6-38.8l1-1
			C947.8,102,952.1,87.3,949,73c-5.1-22.8-27.7-37.2-50.5-32.1c-1.9,0.4-3.8,1-5.7,1.7c-1.3,0.5-2.7-0.2-3.2-1.5
			c-0.5-1.3,0.2-2.7,1.5-3.2c2.1-0.8,4.3-1.4,6.4-1.9c25.5-5.7,50.8,10.4,56.4,35.9c3.5,15.6-1.1,31.6-12.1,43l9.1,40.9L899.8,167.2
			z"/>
	</g>
</g>
<g>
	<g>
		<polygon class="st19" points="598.8,337.7 564,503.5 572.9,500.5 606.6,339.8 		"/>
		<polygon class="st19" points="614.5,341.9 581.7,497.6 590.7,494.7 622.3,344.1 		"/>
		<path class="st19" d="M583.1,333.4l-39.7,188.8l3.3-5.3c2.1-3.4,4.8-6.3,8-8.7L591,335.6L583.1,333.4z"/>
		<polygon class="st19" points="630.1,346.2 599.5,491.8 608.5,488.9 638,348.3 		"/>
		<polygon class="st19" points="567.4,329.2 518.3,562.9 530.9,542.5 575.3,331.3 		"/>
		<path class="st19" d="M420.1,347.8l1.6,4.8l9.3-44.4C418.1,319.7,416.2,335.7,420.1,347.8z"/>
		<polygon class="st19" points="692.8,363.2 670.7,468.5 679.6,465.6 700.7,365.3 		"/>
		<polygon class="st19" points="645.8,350.5 617.3,486 626.2,483.1 653.7,352.6 		"/>
		<polygon class="st19" points="661.5,354.7 635.1,480.1 644,477.2 669.3,356.8 		"/>
		<polygon class="st19" points="536.1,320.7 487.3,552.8 492.4,568.3 543.9,322.8 		"/>
		<polygon class="st19" points="457.7,299.4 436.8,398.7 441.9,414.2 465.5,301.5 		"/>
		<polygon class="st19" points="473.4,303.7 446.9,429.5 452,445 481.2,305.8 		"/>
		<path class="st19" d="M551.7,324.9l-53,252.1c2.6,1.2,5.6,1.3,8.3,0.2l52.6-250.2L551.7,324.9z"/>
		<polygon class="st19" points="489,307.9 457,460.4 462.1,475.8 496.9,310 		"/>
		<path class="st19" d="M440.7,301.4l-14,66.5l5.1,15.4l18-85.8C446.5,298.7,443.4,300,440.7,301.4z"/>
		<polygon class="st19" points="708.5,367.5 688.5,462.7 697.4,459.7 716.4,369.6 		"/>
		<polygon class="st19" points="504.7,312.2 467.1,491.2 472.2,506.6 512.6,314.3 		"/>
		<polygon class="st19" points="520.4,316.4 477.2,522 482.3,537.4 528.2,318.5 		"/>
		<polygon class="st19" points="677.2,359 652.9,474.3 661.8,471.4 685,361.1 		"/>
		<path class="st19" d="M786.6,390l-6.8,32.4C787.1,411.9,789.2,399.5,786.6,390z"/>
		<path class="st19" d="M771.2,384.5L759.8,439c3.5-1.6,6.7-3.5,9.5-5.6l9.8-46.8L771.2,384.5z"/>
		<polygon class="st19" points="724.2,371.7 706.3,456.8 715.2,453.9 732,373.9 		"/>
		<polygon class="st19" points="755.5,380.2 741.9,445.2 750.8,442.3 763.4,382.4 		"/>
		<polygon class="st19" points="739.9,376 724.1,451 733,448.1 747.7,378.1 		"/>
		<path class="st20" d="M786.6,390c-0.1-0.5-0.3-1-0.4-1.5l-7.1-1.9l-9.8,46.8c4.3-3.2,7.8-6.9,10.6-10.9L786.6,390z"/>
		<path class="st20" d="M763.4,382.4l-12.6,59.9l3.2-1.1c2-0.7,3.9-1.4,5.7-2.2l11.4-54.5L763.4,382.4z"/>
		<polygon class="st20" points="747.7,378.1 733,448.1 741.9,445.2 755.5,380.2 		"/>
		<polygon class="st20" points="732,373.9 715.2,453.9 724.1,451 739.9,376 		"/>
		<polygon class="st20" points="716.4,369.6 697.4,459.7 706.3,456.8 724.2,371.7 		"/>
		<polygon class="st20" points="700.7,365.3 679.6,465.6 688.5,462.7 708.5,367.5 		"/>
		<polygon class="st20" points="685,361.1 661.8,471.4 670.7,468.5 692.8,363.2 		"/>
		<polygon class="st20" points="669.3,356.8 644,477.2 652.9,474.3 677.2,359 		"/>
		<polygon class="st20" points="653.7,352.6 626.2,483.1 635.1,480.1 661.5,354.7 		"/>
		<polygon class="st20" points="638,348.3 608.5,488.9 617.3,486 645.8,350.5 		"/>
		<polygon class="st20" points="622.3,344.1 590.7,494.7 599.5,491.8 630.1,346.2 		"/>
		<polygon class="st20" points="606.6,339.8 572.9,500.5 581.7,497.6 614.5,341.9 		"/>
		<path class="st20" d="M591,335.6l-36.3,172.7c2.7-2,5.8-3.6,9.1-4.7l0.2-0.1l34.8-165.8L591,335.6z"/>
		<polygon class="st20" points="575.3,331.3 530.9,542.5 543.4,522.2 583.1,333.4 		"/>
		<path class="st20" d="M559.6,327.1L507,577.3c2-0.8,3.8-2.2,5-4.2l6.3-10.1l49.1-233.7L559.6,327.1z"/>
		<path class="st20" d="M543.9,322.8l-51.6,245.5l0.8,2.5c1,3,3.1,5.1,5.6,6.3l53-252.1L543.9,322.8z"/>
		<polygon class="st20" points="528.2,318.5 482.3,537.4 487.3,552.8 536.1,320.7 		"/>
		<polygon class="st20" points="512.6,314.3 472.2,506.6 477.2,522 520.4,316.4 		"/>
		<polygon class="st20" points="496.9,310 462.1,475.8 467.1,491.2 504.7,312.2 		"/>
		<polygon class="st20" points="481.2,305.8 452,445 457,460.4 489,307.9 		"/>
		<polygon class="st20" points="465.5,301.5 441.9,414.2 446.9,429.5 473.4,303.7 		"/>
		<path class="st20" d="M450.3,297.4c-0.2,0.1-0.3,0.1-0.5,0.2l-18,85.8l5,15.4l20.9-99.3L450.3,297.4z"/>
		<path class="st20" d="M431,308.1l-9.3,44.4l5,15.4l14-66.5C437,303.4,433.7,305.6,431,308.1z"/>
	</g>
	<g>
		<path class="st1" d="M503.9,580.4c-0.7,0-1.4-0.1-2-0.2c-5.4-0.9-9.9-5.1-11-8.7l-73-223c-1.6-4.9-4.6-17.7,2.3-30.9
			c6.1-11.5,18-19.9,35.5-25.1l0.7-0.2L788.8,388l0.3,1.5c6.6,34.8-24.7,50.1-28.3,51.7l-0.3,0.1l-196,64.6
			c-2.8,0.9-7.1,2.8-9.6,4.6l-38.3,62.2C512.2,578.8,507.5,580.4,503.9,580.4z M495.6,570c0.5,1.6,3.3,4.7,7.1,5.3
			c3.6,0.6,6.9-1.3,9.9-5.4l38.6-62.8l0.4-0.3c3.1-2.3,8.1-4.5,11.4-5.6l0.2-0.1l195.7-64.5c3.7-1.7,30.2-15,25.6-44.6l-328.2-94.4
			c-15.7,4.7-26.4,12.3-31.8,22.4c-6.2,11.8-3.1,23.6-2,27L495.6,570z"/>
	</g>
	<path class="st21" d="M766.1,421.4l-189,61.9c-6.7,2.2-12.5,6.7-16.2,12.8l-32.9,53.4c-4.5,7.2-15.3,5.9-18-2.1L439.5,332
		c-5.2-15.8,3.4-32.8,19.2-37.9l239.9-78.6c15.8-5.2,32.8,3.4,37.9,19.2l48.7,148.8C790.4,399.3,781.8,416.3,766.1,421.4z"/>
	<g>
		<path class="st1" d="M483.1,467.8c-1.1,0-2-0.7-2.4-1.7l-43.6-133.3c-5.6-17.1,3.7-35.5,20.8-41.1l227-74.3
			c1.3-0.4,2.7,0.3,3.2,1.6c0.4,1.3-0.3,2.7-1.6,3.2l-227,74.3c-14.4,4.7-22.3,20.3-17.6,34.8l43.6,133.3c0.4,1.3-0.3,2.7-1.6,3.2
			C483.6,467.8,483.4,467.8,483.1,467.8z"/>
	</g>
	<g>
		<path class="st1" d="M488.9,485.6c-1.1,0-2-0.7-2.4-1.7l-2.4-7.2c-0.4-1.3,0.3-2.7,1.6-3.2c1.3-0.4,2.7,0.3,3.2,1.6l2.4,7.2
			c0.4,1.3-0.3,2.7-1.6,3.2C489.5,485.6,489.2,485.6,488.9,485.6z"/>
	</g>
	<g>
		<path class="st1" d="M519.5,556.7c-0.5,0-1,0-1.5-0.1c-4.9-0.6-8.9-3.8-10.4-8.5l-18-54.8c-0.4-1.3,0.3-2.7,1.6-3.2
			c1.3-0.4,2.7,0.3,3.2,1.6l18,54.8c0.9,2.8,3.3,4.7,6.2,5.1c3,0.4,5.7-1,7.2-3.5l32.9-53.4c4-6.5,10.3-11.4,17.6-13.8l189-61.9
			c7-2.3,12.7-7.2,16-13.7c3.3-6.6,3.9-14,1.6-21l-48.7-148.8c-2.3-7-7.2-12.7-13.7-16c-6.6-3.3-14-3.9-21-1.6
			c-1.3,0.4-2.7-0.3-3.2-1.6c-0.4-1.3,0.3-2.7,1.6-3.2c8.3-2.7,17.1-2,24.9,1.9c7.8,3.9,13.5,10.6,16.2,18.9l48.7,148.8
			c2.7,8.3,2,17.1-1.9,24.9c-3.9,7.8-10.6,13.5-18.9,16.2l-189,61.9c-6.2,2-11.5,6.2-14.9,11.7l-33,53.4
			C527.7,554.5,523.8,556.7,519.5,556.7z"/>
	</g>
	<g>
		<ellipse transform="matrix(0.9507 -0.31 0.31 0.9507 -81.8791 192.4777)" class="st1" cx="564.6" cy="353.8" rx="13" ry="13"/>
		<ellipse transform="matrix(0.9507 -0.31 0.31 0.9507 -66.0718 223.3801)" class="st1" cx="669.7" cy="319.6" rx="13" ry="13"/>
		<g>
			<path class="st1" d="M639.5,401.1c20.2-6.6,32.1-27,28.5-47.4c-0.6-3.2-3.7-5.1-6.8-4.1l-69.7,22.7c-3,1-4.4,4.4-3,7.3
				C597.6,398.1,619.3,407.7,639.5,401.1z"/>
		</g>
	</g>
</g>
<g>
	<g>
		<g>
			<polygon class="st22" points="264.7,143 149.2,266.9 158.3,269 270.3,148.9 			"/>
			<polygon class="st22" points="275.9,154.7 167.4,271.1 176.6,273.2 281.5,160.6 			"/>
			<path class="st22" d="M253.5,131.2L121.9,272.3l5.5-2.8c3.6-1.8,7.4-2.9,11.3-3.3l120.3-129L253.5,131.2z"/>
			<polygon class="st22" points="287.1,166.5 185.7,275.3 194.8,277.4 292.7,172.4 			"/>
			<polygon class="st22" points="242.3,119.5 79.4,294.2 100.7,283.2 247.9,125.4 			"/>
			<path class="st22" d="M106.6,59.2l-1.1,4.9l31-33.2C119.4,34.2,109.4,46.9,106.6,59.2z"/>
			<polygon class="st22" points="332,213.5 258.6,292.1 267.8,294.3 337.6,219.4 			"/>
			<polygon class="st22" points="298.3,178.2 203.9,279.5 213,281.6 304,184.1 			"/>
			<polygon class="st22" points="309.6,190 222.2,283.7 231.3,285.8 315.2,195.9 			"/>
			<polygon class="st22" points="219.8,96 58,269.5 54.4,285.3 225.4,101.9 			"/>
			<polygon class="st22" points="163.7,37.3 94.5,111.5 90.9,127.3 169.3,43.2 			"/>
			<polygon class="st22" points="174.9,49 87.2,143.1 83.6,158.9 180.6,54.9 			"/>
			<path class="st22" d="M231,107.7L55.3,296.2c1.6,2.3,4.1,4,7,4.5l174.4-187L231,107.7z"/>
			<polygon class="st22" points="186.2,60.8 79.9,174.7 76.3,190.5 191.8,66.6 			"/>
			<path class="st22" d="M148.1,30.2l-46.3,49.7l-3.7,15.8l59.8-64.1C154.5,30.8,151.2,30.4,148.1,30.2z"/>
			<polygon class="st22" points="343.2,225.2 276.9,296.4 286,298.5 348.8,231.1 			"/>
			<polygon class="st22" points="197.4,72.5 72.6,206.3 69,222.1 203,78.4 			"/>
			<polygon class="st22" points="208.6,84.3 65.3,237.9 61.7,253.7 214.2,90.1 			"/>
			<polygon class="st22" points="320.8,201.7 240.4,287.9 249.5,290 326.4,207.6 			"/>
			<path class="st22" d="M398.4,284.9l-22.6,24.2C387.5,303.9,395.7,294.3,398.4,284.9z"/>
			<path class="st22" d="M388.1,272.2l-38,40.7c3.8,0.4,7.5,0.5,11,0.1l32.6-34.9L388.1,272.2z"/>
			<polygon class="st22" points="354.4,237 295.1,300.6 304.3,302.7 360.1,242.9 			"/>
			<polygon class="st22" points="376.9,260.5 331.6,309 340.8,311.1 382.5,266.3 			"/>
			<polygon class="st22" points="365.7,248.7 313.4,304.8 322.5,306.9 371.3,254.6 			"/>
		</g>
		<g>
			<path class="st23" d="M398.4,284.9c0.1-0.5,0.3-1,0.4-1.5l-5.1-5.3L361.1,313c5.3-0.5,10.3-1.9,14.7-3.9L398.4,284.9z"/>
			<path class="st23" d="M382.5,266.3l-41.7,44.8l3.3,0.8c2.1,0.5,4.1,0.8,6.1,1l38-40.7L382.5,266.3z"/>
			<polygon class="st23" points="371.3,254.6 322.5,306.9 331.6,309 376.9,260.5 			"/>
			<polygon class="st23" points="360.1,242.9 304.3,302.7 313.4,304.8 365.7,248.7 			"/>
			<polygon class="st23" points="348.8,231.1 286,298.5 295.1,300.6 354.4,237 			"/>
			<polygon class="st23" points="337.6,219.4 267.8,294.3 276.9,296.4 343.2,225.2 			"/>
			<polygon class="st23" points="326.4,207.6 249.5,290 258.6,292.1 332,213.5 			"/>
			<polygon class="st23" points="315.2,195.9 231.3,285.8 240.4,287.9 320.8,201.7 			"/>
			<polygon class="st23" points="304,184.1 213,281.6 222.2,283.7 309.6,190 			"/>
			<polygon class="st23" points="292.7,172.4 194.8,277.4 203.9,279.5 298.3,178.2 			"/>
			<polygon class="st23" points="281.5,160.6 176.6,273.2 185.7,275.3 287.1,166.5 			"/>
			<polygon class="st23" points="270.3,148.9 158.3,269 167.4,271.1 275.9,154.7 			"/>
			<path class="st23" d="M259.1,137.1l-120.3,129c3.4-0.3,6.8-0.1,10.2,0.7l0.2,0L264.7,143L259.1,137.1z"/>
			<polygon class="st23" points="247.9,125.4 100.7,283.2 121.9,272.3 253.5,131.2 			"/>
			<path class="st23" d="M236.7,113.6l-174.4,187c2.1,0.4,4.3,0.1,6.5-1l10.6-5.4l162.9-174.7L236.7,113.6z"/>
			<path class="st23" d="M225.4,101.9L54.4,285.3l-0.6,2.6c-0.7,3.1,0,6,1.5,8.3L231,107.7L225.4,101.9z"/>
			<polygon class="st23" points="214.2,90.1 61.7,253.7 58,269.5 219.8,96 			"/>
			<polygon class="st23" points="203,78.4 69,222.1 65.3,237.9 208.6,84.3 			"/>
			<polygon class="st23" points="191.8,66.6 76.3,190.5 72.6,206.3 197.4,72.5 			"/>
			<polygon class="st23" points="180.6,54.9 83.6,158.9 79.9,174.7 186.2,60.8 			"/>
			<polygon class="st23" points="169.3,43.2 90.9,127.3 87.2,143.1 174.9,49 			"/>
			<path class="st23" d="M158.4,31.7c-0.2,0-0.3-0.1-0.5-0.1L98.2,95.7l-3.6,15.8l69.2-74.2L158.4,31.7z"/>
			<path class="st23" d="M136.4,30.9l-31,33.2l-3.6,15.8l46.3-49.7C143.9,30,140,30.2,136.4,30.9z"/>
		</g>
	</g>
	<g>
		<path class="st1" d="M355.3,315.7c-2.7,0-4.6-0.2-5.4-0.3l-0.3,0l-201.2-46.1c-2.9-0.7-7.5-1.2-10.6-1l-64.9,33.5
			c-8.3,3.5-13.6,1.3-16.6-1.2c-4.2-3.5-5.8-9.4-5-13.1l2.4,0.6l-2.4-0.6l52.8-228.7c1.2-5,5.2-17.5,18-25.2
			c11.1-6.7,25.7-7.8,43.3-3.1l0.7,0.2l235.2,253.8l-0.5,1.4C390.8,312.5,366.4,315.7,355.3,315.7z M350.6,310.4
			c4,0.4,33.6,2.7,45-25L163.4,35c-15.9-4.1-29-3.2-38.8,2.7c-11.4,6.9-14.9,18.6-15.7,22.1L56.2,288.5c-0.4,1.6,0.4,5.7,3.3,8.2
			c2.7,2.3,6.6,2.5,11.3,0.5l65.5-33.8l0.5,0c3.8-0.4,9.3,0.3,12.7,1.1l0.2,0L350.6,310.4z"/>
	</g>
	<path class="st23" d="M364.6,301.2l-193.7-44.7c-6.9-1.6-14.2-0.7-20.5,2.5l-55.8,28.6c-7.5,3.9-16.2-2.8-14.3-11.1l51-220.7
		c3.7-16.2,19.9-26.3,36.1-22.5l246,56.8c16.2,3.7,26.3,19.9,22.5,36.1l-35.2,152.5C396.9,294.8,380.8,304.9,364.6,301.2z"/>
	<g>
		<path class="st1" d="M371.4,304.4c-2.5,0-4.9-0.3-7.4-0.8l-95.2-22c-1.3-0.3-2.2-1.7-1.9-3c0.3-1.3,1.7-2.2,3-1.9l95.2,22
			c7.2,1.7,14.6,0.4,20.8-3.5c6.2-3.9,10.6-10,12.3-17.2l35.2-152.5c3.4-14.8-5.8-29.6-20.7-33.1L191.2,41.3c-1.3-0.3-2.2-1.7-1.9-3
			c0.3-1.3,1.7-2.2,3-1.9l221.5,51.1c17.5,4,28.4,21.6,24.4,39.1l-35.2,152.5c-2,8.5-7.1,15.7-14.5,20.3
			C383.4,302.8,377.4,304.4,371.4,304.4z"/>
	</g>
	<g>
		<path class="st1" d="M90,291.2c-2.7,0-5.4-0.9-7.6-2.7c-3.9-3-5.6-7.9-4.5-12.6l51-220.7c4-17.5,21.6-28.4,39.1-24.4l7.3,1.7
			c1.3,0.3,2.2,1.7,1.9,3c-0.3,1.3-1.7,2.2-3,1.9l-7.3-1.7c-14.8-3.4-29.6,5.8-33.1,20.7l-51,220.7c-0.7,2.9,0.3,5.7,2.7,7.6
			c2.4,1.8,5.3,2.1,8,0.8l55.8-28.6c6.8-3.5,14.7-4.5,22.2-2.8l80.4,18.6c1.3,0.3,2.2,1.7,1.9,3c-0.3,1.3-1.7,2.2-3,1.9l-80.4-18.6
			c-6.3-1.5-13-0.6-18.8,2.3l-55.8,28.6C93.9,290.8,91.9,291.2,90,291.2z"/>
	</g>
	<ellipse transform="matrix(0.225 -0.9744 0.9744 0.225 99.6625 453.1112)" class="st1" cx="334.7" cy="163.9" rx="13" ry="13"/>
	<g>
		<g>
			<path class="st1" d="M241.9,204.7c-1.8-1.4-3.5-3-5.1-4.8c-5.2-5.9-8.2-12.8-8.7-20.2c-0.2-2.7,1.8-4.9,4.5-5.1
				c2.6-0.2,4.9,1.8,5.1,4.5c0.3,5.2,2.5,10.2,6.3,14.4c3.9,4.3,8.7,7.1,13.9,8c2.6,0.4,4.4,2.9,3.9,5.5c-0.4,2.6-2.9,4.4-5.5,3.9
				C251.1,210.1,246.2,208,241.9,204.7z"/>
		</g>
	</g>
	<g>
		<path class="st1" d="M210.3,149.8c-1-0.7-1.6-1.8-1.8-3.1c-0.4-2.6,1.4-5.1,4-5.5c3.2-0.5,11.6-1,18.1-1.2
			c-6.2-5.4-13.7-10.1-13.8-10.1c-2.3-1.4-2.9-4.4-1.5-6.6c1.4-2.3,4.4-3,6.6-1.5c0.5,0.3,12.1,7.5,19.2,15c2.1,2.2,2.7,5.5,1.5,8.4
			c-1.3,2.8-4.1,4.6-7.2,4.5c-6.2-0.2-18.1,0.6-21.5,1.1C212.6,151,211.3,150.6,210.3,149.8z"/>
	</g>
</g>
</svg>
